<?xml version="1.0" standalone="no"?>
<!DOCTYPE svg PUBLIC "-//W3C//DTD SVG 20010904//EN"
 "http://www.w3.org/TR/2001/REC-SVG-20010904/DTD/svg10.dtd">
<svg version="1.0" xmlns="http://www.w3.org/2000/svg"
 width="4000.000000pt" height="4000.000000pt" viewBox="0 0 4000.000000 4000.000000"
 preserveAspectRatio="xMidYMid meet">

<g transform="translate(0.000000,4000.000000) scale(0.100000,-0.100000)"
fill="#000000" stroke="none">
<path d="M10500 28363 l1 -5728 57 -57 c31 -31 1339 -1220 2906 -2642 l2848
-2586 2935 0 2934 0 -1284 1132 c-706 623 -2045 1804 -2974 2623 l-1691 1490
-7 45 c-4 25 -9 2611 -11 5748 l-4 5702 -2855 0 -2855 0 0 -5727z"/>
<path d="M19056 32297 c-567 -986 -1032 -1794 -1035 -1797 -4 -3 -4 -1367 -1
-3031 l5 -3027 860 425 c473 234 937 462 1032 508 l172 83 1038 -513 1038
-512 2 76 c2 42 4 1407 5 3034 2 2061 0 2957 -8 2957 -5 0 -471 801 -1034
1781 -563 979 -1028 1786 -1034 1794 -9 11 -248 -399 -1040 -1778z"/>
<path d="M23880 28917 l0 -5163 2773 -2479 2772 -2479 7 40 c4 21 18 2975 33
6564 14 3589 29 7010 32 7603 l6 1077 -2811 0 -2812 0 0 -5163z"/>
<path d="M18427 22103 c329 -291 1673 -1475 2986 -2632 l2387 -2104 0 -5733 0
-5734 2855 0 2855 0 0 5728 0 5727 -72 66 c-40 37 -1348 1223 -2907 2638
l-2833 2571 -2935 0 -2934 0 598 -527z"/>
<path d="M10576 21148 c-2 -18 -16 -2971 -31 -6563 -14 -3591 -29 -7017 -32
-7612 l-6 -1083 2811 0 2812 0 0 5168 -1 5167 -2755 2465 c-1515 1356 -2764
2471 -2774 2478 -17 12 -19 11 -24 -20z"/>
<path d="M21123 15054 l-1033 -513 -1022 508 -1023 508 -5 -3026 c-4 -2205 -2
-3030 6 -3041 6 -8 469 -818 1029 -1799 l1018 -1783 31 54 c17 30 478 838
1025 1796 547 958 1000 1742 1005 1742 8 0 10 887 8 2957 -1 1627 -3 2992 -5
3034 l-2 75 -1032 -512z"/>
</g>
</svg>
